<svg xmlns="http://www.w3.org/2000/svg" viewBox="0 0 387.5 45" width="388" height="45">
  <path d="M0 0H12V44H0ZM12 12L44 0L44 10L12 22ZM12 22L44 34L44 44L12 32Z" fill="#1A2B5A" fill-rule="nonzero"></path>
  <g transform="translate(52 0) scale(1.375)">
    <path d="M6.766 32.438L0 32.438L0 0.438L6.766 0.438L6.766 14.547L7.188 14.547L18.703 0.438L26.813 0.438L14.938 14.766L26.953 32.438L18.859 32.438L10.094 19.281L6.766 23.344L6.766 32.438ZM37.063 32.891L37.063 32.891Q34.766 32.891 32.969 32.086Q31.172 31.281 30.133 29.695Q29.094 28.109 29.094 25.734L29.094 25.734Q29.094 23.734 29.828 22.375Q30.563 21.016 31.828 20.188Q33.094 19.359 34.711 18.938Q36.328 18.516 38.109 18.344L38.109 18.344Q40.203 18.125 41.484 17.930Q42.766 17.734 43.344 17.344Q43.922 16.953 43.922 16.188L43.922 16.188L43.922 16.094Q43.922 14.609 42.992 13.797Q42.063 12.984 40.359 12.984L40.359 12.984Q38.563 12.984 37.500 13.773Q36.438 14.563 36.094 15.750L36.094 15.750L29.938 15.250Q30.406 13.063 31.781 11.461Q33.156 9.859 35.336 8.992Q37.516 8.125 40.391 8.125L40.391 8.125Q42.391 8.125 44.227 8.594Q46.063 9.063 47.492 10.047Q48.922 11.031 49.750 12.570Q50.578 14.109 50.578 16.250L50.578 16.250L50.578 32.438L44.266 32.438L44.266 29.109L44.078 29.109Q43.500 30.234 42.531 31.086Q41.563 31.938 40.203 32.414Q38.844 32.891 37.063 32.891ZM38.969 28.297L38.969 28.297Q40.438 28.297 41.563 27.711Q42.688 27.125 43.328 26.125Q43.969 25.125 43.969 23.859L43.969 23.859L43.969 21.313Q43.656 21.516 43.117 21.680Q42.578 21.844 41.906 21.977Q41.234 22.109 40.563 22.211Q39.891 22.313 39.344 22.391L39.344 22.391Q38.172 22.563 37.297 22.938Q36.422 23.313 35.938 23.945Q35.453 24.578 35.453 25.516L35.453 25.516Q35.453 26.875 36.445 27.586Q37.438 28.297 38.969 28.297ZM62.406 18.563L62.406 18.563L62.406 32.438L55.750 32.438L55.750 8.438L62.094 8.438L62.094 12.672L62.375 12.672Q63.172 10.578 65.047 9.352Q66.922 8.125 69.594 8.125L69.594 8.125Q72.094 8.125 73.953 9.219Q75.813 10.313 76.844 12.336Q77.875 14.359 77.875 17.156L77.875 17.156L77.875 32.438L71.219 32.438L71.219 18.344Q71.234 16.141 70.094 14.898Q68.953 13.656 66.953 13.656L66.953 13.656Q65.609 13.656 64.586 14.234Q63.563 14.813 62.992 15.914Q62.422 17.016 62.406 18.563ZM81.422 8.438L95.875 8.438L95.875 13.438L81.422 13.438L81.422 8.438ZM84.703 25.938L84.703 2.688L91.359 2.688L91.359 25.063Q91.359 25.984 91.641 26.492Q91.922 27 92.430 27.203Q92.938 27.406 93.609 27.406L93.609 27.406Q94.078 27.406 94.547 27.320Q95.016 27.234 95.266 27.188L95.266 27.188L96.313 32.141Q95.813 32.297 94.906 32.508Q94 32.719 92.703 32.766L92.703 32.766Q90.297 32.859 88.492 32.125Q86.688 31.391 85.688 29.844Q84.688 28.297 84.703 25.938L84.703 25.938ZM110.797 32.906L110.797 32.906Q107.156 32.906 104.508 31.352Q101.859 29.797 100.422 27.008Q98.984 24.219 98.984 20.531L98.984 20.531Q98.984 16.813 100.422 14.023Q101.859 11.234 104.508 9.680Q107.156 8.125 110.797 8.125L110.797 8.125Q114.438 8.125 117.086 9.680Q119.734 11.234 121.172 14.023Q122.609 16.813 122.609 20.531L122.609 20.531Q122.609 24.219 121.172 27.008Q119.734 29.797 117.086 31.352Q114.438 32.906 110.797 32.906ZM110.828 27.750L110.828 27.750Q112.484 27.750 113.594 26.805Q114.703 25.859 115.273 24.219Q115.844 22.578 115.844 20.484L115.844 20.484Q115.844 18.391 115.273 16.750Q114.703 15.109 113.594 14.156Q112.484 13.203 110.828 13.203L110.828 13.203Q109.156 13.203 108.023 14.156Q106.891 15.109 106.320 16.750Q105.750 18.391 105.750 20.484L105.750 20.484Q105.750 22.578 106.320 24.219Q106.891 25.859 108.023 26.805Q109.156 27.750 110.828 27.750ZM133.609 32.438L126.953 32.438L126.953 8.438L133.406 8.438L133.406 12.625L133.656 12.625Q134.313 10.391 135.859 9.242Q137.406 8.094 139.422 8.094L139.422 8.094Q139.922 8.094 140.500 8.156Q141.078 8.219 141.516 8.328L141.516 8.328L141.516 14.234Q141.047 14.094 140.219 13.984Q139.391 13.875 138.703 13.875L138.703 13.875Q137.234 13.875 136.086 14.508Q134.938 15.141 134.273 16.266Q133.609 17.391 133.609 18.859L133.609 18.859L133.609 32.438ZM173.297 11.641L173.297 11.641L166.453 11.641Q166.266 10.313 165.688 9.273Q165.109 8.234 164.203 7.500Q163.297 6.766 162.117 6.375Q160.938 5.984 159.563 5.984L159.563 5.984Q157.078 5.984 155.234 7.211Q153.391 8.438 152.375 10.773Q151.359 13.109 151.359 16.438L151.359 16.438Q151.359 19.859 152.383 22.188Q153.406 24.516 155.250 25.703Q157.094 26.891 159.516 26.891L159.516 26.891Q160.875 26.891 162.039 26.531Q163.203 26.172 164.109 25.477Q165.016 24.781 165.617 23.781Q166.219 22.781 166.453 21.500L166.453 21.500L173.297 21.531Q173.031 23.734 171.977 25.773Q170.922 27.813 169.148 29.414Q167.375 31.016 164.930 31.945Q162.484 32.875 159.406 32.875L159.406 32.875Q155.125 32.875 151.758 30.938Q148.391 29 146.445 25.328Q144.500 21.656 144.500 16.438L144.500 16.438Q144.500 11.203 146.469 7.531Q148.438 3.859 151.813 1.930Q155.188 0 159.406 0L159.406 0Q162.188 0 164.570 0.781Q166.953 1.563 168.797 3.055Q170.641 4.547 171.805 6.703Q172.969 8.859 173.297 11.641ZM188.875 32.906L188.875 32.906Q185.234 32.906 182.586 31.352Q179.938 29.797 178.500 27.008Q177.063 24.219 177.063 20.531L177.063 20.531Q177.063 16.813 178.500 14.023Q179.938 11.234 182.586 9.680Q185.234 8.125 188.875 8.125L188.875 8.125Q192.516 8.125 195.164 9.680Q197.813 11.234 199.250 14.023Q200.688 16.813 200.688 20.531L200.688 20.531Q200.688 24.219 199.250 27.008Q197.813 29.797 195.164 31.352Q192.516 32.906 188.875 32.906ZM188.906 27.750L188.906 27.750Q190.563 27.750 191.672 26.805Q192.781 25.859 193.352 24.219Q193.922 22.578 193.922 20.484L193.922 20.484Q193.922 18.391 193.352 16.750Q192.781 15.109 191.672 14.156Q190.563 13.203 188.906 13.203L188.906 13.203Q187.234 13.203 186.102 14.156Q184.969 15.109 184.398 16.750Q183.828 18.391 183.828 20.484L183.828 20.484Q183.828 22.578 184.398 24.219Q184.969 25.859 186.102 26.805Q187.234 27.750 188.906 27.750ZM211.688 32.438L205.031 32.438L205.031 8.438L211.484 8.438L211.484 12.625L211.734 12.625Q212.391 10.391 213.938 9.242Q215.484 8.094 217.500 8.094L217.500 8.094Q218 8.094 218.578 8.156Q219.156 8.219 219.594 8.328L219.594 8.328L219.594 14.234Q219.125 14.094 218.297 13.984Q217.469 13.875 216.781 13.875L216.781 13.875Q215.313 13.875 214.164 14.508Q213.016 15.141 212.352 16.266Q211.688 17.391 211.688 18.859L211.688 18.859L211.688 32.438ZM232.828 32.906L232.828 32.906Q229.125 32.906 226.461 31.398Q223.797 29.891 222.359 27.117Q220.922 24.344 220.922 20.547L220.922 20.547Q220.922 16.844 222.359 14.047Q223.797 11.250 226.414 9.688Q229.031 8.125 232.563 8.125L232.563 8.125Q234.938 8.125 236.992 8.883Q239.047 9.641 240.586 11.156Q242.125 12.672 242.984 14.961Q243.844 17.250 243.844 20.313L243.844 20.313L243.844 22.141L223.578 22.141L223.578 18.016L237.578 18.016Q237.578 16.578 236.953 15.469Q236.328 14.359 235.227 13.727Q234.125 13.094 232.672 13.094L232.672 13.094Q231.156 13.094 229.992 13.789Q228.828 14.484 228.172 15.648Q227.516 16.813 227.500 18.234L227.500 18.234L227.500 22.156Q227.500 23.938 228.164 25.234Q228.828 26.531 230.047 27.234Q231.266 27.938 232.938 27.938L232.938 27.938Q234.047 27.938 234.969 27.625Q235.891 27.313 236.547 26.688Q237.203 26.063 237.547 25.156L237.547 25.156L243.703 25.563Q243.234 27.781 241.789 29.430Q240.344 31.078 238.070 31.992Q235.797 32.906 232.828 32.906Z" fill="#1A2B5A"></path>
  </g>
</svg>