<svg xmlns="http://www.w3.org/2000/svg" viewBox="0 0 48 48" width="48" height="48" role="img" aria-label="KantorCore Finance module icon">
  <rect width="48" height="48" rx="11" fill="#0F7B6C"></rect>
  <rect x="10" y="33" width="28" height="5" rx="2.5" fill="#0A584D"></rect>
    <rect x="10" y="27" width="28" height="5" rx="2.5" fill="#2D9588"></rect>
    <rect x="9" y="11" width="30" height="14" rx="6" fill="#FFFFFF"></rect>
    <path d="M18.5 14.5 H22.5 Q25 14.5 25 17 Q25 19 22.5 19 H20.5 V21.5 H18.5 V19 V14.5 Z M20.5 16 V17.5 H22 Q22.5 17.5 22.5 17 Q22.5 16 22 16 H20.5 Z" fill="#0F7B6C"></path>
    <rect x="27" y="14.5" width="3" height="1.5" fill="#0F7B6C" rx="0.5"></rect>
    <rect x="27" y="17.5" width="3" height="1.5" fill="#0F7B6C" rx="0.5"></rect>
    <rect x="27" y="20" width="3" height="1.5" fill="#0F7B6C" rx="0.5"></rect>
</svg>